<svg id="_x31_" height="512" viewBox="0 0 24 24" width="512" xmlns="http://www.w3.org/2000/svg"><path d="m7.51 22.83c-.128 0-.256-.049-.354-.146l-6.42-6.42c-.473-.461-.736-1.089-.736-1.764 0-.64.252-1.266.691-1.718l11.269-11.689c.667-.704 1.57-1.093 2.54-1.093h7c1.379 0 2.5 1.122 2.5 2.5v7c0 .969-.39 1.872-1.097 2.543l-3.097 2.987c-.197.192-.514.187-.707-.013-.191-.199-.186-.515.014-.707l3.1-2.99c.509-.483.787-1.128.787-1.82v-7c0-.827-.673-1.5-1.5-1.5h-7c-.692 0-1.338.278-1.816.784l-11.274 11.693c-.262.269-.41.641-.41 1.023 0 .403.156.776.438 1.052l6.425 6.425c.195.195.195.512 0 .707-.097.097-.225.146-.353.146z"/><path d="m19 7c-1.103 0-2-.897-2-2s.897-2 2-2 2 .897 2 2-.897 2-2 2zm0-3c-.552 0-1 .449-1 1s.448 1 1 1 1-.449 1-1-.448-1-1-1z"/><path d="m17.5 24h-1c-.827 0-1.5-.673-1.5-1.5v-4c0-.827.673-1.5 1.5-1.5h1c.827 0 1.5.673 1.5 1.5v4c0 .827-.673 1.5-1.5 1.5zm-1-6c-.275 0-.5.224-.5.5v4c0 .276.225.5.5.5h1c.275 0 .5-.224.5-.5v-4c0-.276-.225-.5-.5-.5z"/><path d="m12 24h-1.5c-.276 0-.5-.224-.5-.5s.224-.5.5-.5h1.5c.552 0 1-.449 1-1s-.448-1-1-1h-1.5c-.276 0-.5-.224-.5-.5v-3c0-.276.224-.5.5-.5h3c.276 0 .5.224.5.5s-.224.5-.5.5h-2.5v2h1c1.103 0 2 .897 2 2s-.897 2-2 2z"/><path d="m20.5 24c-.075 0-.151-.017-.224-.053-.247-.124-.347-.424-.224-.671l3-6c.124-.247.425-.346.671-.224.247.124.347.424.224.671l-3 6c-.088.176-.264.277-.447.277z"/><path d="m20.75 18.5c-.414 0-.75-.336-.75-.75s.336-.75.75-.75.75.336.75.75-.336.75-.75.75z"/><path d="m23.25 24c-.414 0-.75-.336-.75-.75s.336-.75.75-.75.75.336.75.75-.336.75-.75.75z"/></svg>