<svg xmlns="http://www.w3.org/2000/svg" viewBox="0 0 50 25"><defs><style>.cls-1{fill:#4f4f4f;}</style></defs><g id="Camada_2" data-name="Camada 2"><g id="Capa_1" data-name="Capa 1"><path class="cls-1" d="M9.38,14.58a5.21,5.21,0,1,0,5.2,5.21A5.21,5.21,0,0,0,9.38,14.58Zm0,8.34a3.13,3.13,0,1,1,3.12-3.13A3.13,3.13,0,0,1,9.38,22.92Z"/><path class="cls-1" d="M40.63,14.58a5.21,5.21,0,1,0,5.2,5.21A5.21,5.21,0,0,0,40.63,14.58Zm0,8.34a3.13,3.13,0,1,1,3.12-3.13A3.13,3.13,0,0,1,40.63,22.92Z"/><path class="cls-1" d="M43.75,8.33H42a2.85,2.85,0,0,1-1.78-.62L32,1.14A5.27,5.27,0,0,0,28.75,0H13.69A5.21,5.21,0,0,0,9.35,2.32L7.58,5A2.84,2.84,0,0,1,5.21,6.25,5.22,5.22,0,0,0,0,11.46v4.17a5.21,5.21,0,0,0,5.21,5.2,1,1,0,1,0,0-2.08,3.13,3.13,0,0,1-3.13-3.12V11.46A3.14,3.14,0,0,1,5.21,8.33a4.92,4.92,0,0,0,4.1-2.19l1.78-2.67a3.12,3.12,0,0,1,2.6-1.39H28.75a3.16,3.16,0,0,1,1.95.69l8.21,6.56A4.93,4.93,0,0,0,42,10.42h1.76c3.06,0,4.17,3.11,4.17,5.2a3,3,0,0,1-3.13,3.13,1,1,0,0,0,0,2.08A5.09,5.09,0,0,0,50,15.63C50,12.09,47.81,8.33,43.75,8.33Z"/><path class="cls-1" d="M36.46,18.75H13.54a1,1,0,0,0,0,2.08H36.46a1,1,0,0,0,0-2.08Z"/><path class="cls-1" d="M34.38,8.33H25V5.21a1,1,0,0,0-2.08,0V9.38a1,1,0,0,0,1,1H34.38a1,1,0,0,0,0-2.09Z"/><path class="cls-1" d="M19.79,8.33H13.14l1.34-2.66a1,1,0,0,0-1.87-.93L10.53,8.91a1,1,0,0,0,0,1,1,1,0,0,0,.89.5h8.33a1,1,0,0,0,0-2.09Z"/><path class="cls-1" d="M28.13,12.5H26a1,1,0,1,0,0,2.08h2.09a1,1,0,1,0,0-2.08Z"/></g></g></svg>