<svg xmlns="http://www.w3.org/2000/svg" viewBox="0 0 15 16.72"><g id="Camada_2" data-name="Camada 2"><g id="Capa_1" data-name="Capa 1"><path d="M14.26,14.91H14a.64.64,0,0,0,0-.2v-.44a.67.67,0,0,0-.68-.68h-.46l-.42-4.92h.66a.58.58,0,0,0,.57-.58V7.7a.58.58,0,0,0-.57-.58h0a.82.82,0,0,0,.05-.28.76.76,0,0,0-.77-.77h-.31a1.9,1.9,0,1,0-2.54,0H9.22a.77.77,0,0,0-.78.77.64.64,0,0,0,.06.28h0a.57.57,0,0,0-.57.58v.39a.57.57,0,0,0,.57.58h.66l-.42,4.92H8.27a.68.68,0,0,0-.44.16.68.68,0,0,0-.44-.16H7.24l-.66-2a4.63,4.63,0,0,1-.22-1.38V7.57a.77.77,0,0,0,.53-.73.67.67,0,0,0-.06-.28h0A.58.58,0,0,0,7.42,6V5.59A.58.58,0,0,0,6.84,5h0a.64.64,0,0,0,.06-.28A.77.77,0,0,0,6.36,4l.45-.91a.72.72,0,0,0,.08-.32A.73.73,0,0,0,6.16,2H5.53a1.22,1.22,0,0,0,.27-.77A1.27,1.27,0,1,0,3.53,2H2.9a.73.73,0,0,0-.72.73.71.71,0,0,0,.07.32L2.7,4a.77.77,0,0,0-.52.73.82.82,0,0,0,0,.28h0a.58.58,0,0,0-.57.58V6a.58.58,0,0,0,.57.58h0a.87.87,0,0,0,0,.28.77.77,0,0,0,.52.73v2.68a4.33,4.33,0,0,1-.22,1.38l-.65,2H1.67a.68.68,0,0,0-.68.68v.44a.64.64,0,0,0,0,.2H.74a.74.74,0,0,0-.74.74V16a.75.75,0,0,0,.74.75H14.26A.75.75,0,0,0,15,16v-.32a.74.74,0,0,0-.74-.74ZM9.39,4.66A1.41,1.41,0,1,1,10.8,6.07,1.41,1.41,0,0,1,9.39,4.66Zm-1,3.43V7.7a.09.09,0,0,1,.09-.09h1.73a.25.25,0,1,0,0-.49h-1a.28.28,0,1,1,0-.56h3.16a.28.28,0,0,1,0,.56h-1a.25.25,0,0,0,0,.49h1.74a.09.09,0,0,1,.08.09v.39a.09.09,0,0,1-.08.09H8.49a.09.09,0,0,1-.09-.09Zm1.24.58H12l.42,4.92H9.22ZM3.75,1.27a.78.78,0,1,1,1.56,0,.78.78,0,0,1-1.56,0ZM2.67,2.77a.23.23,0,0,1,.23-.24H6.16a.24.24,0,0,1,.24.24.23.23,0,0,1,0,.11L5.83,4H3.23L2.69,2.88A.22.22,0,0,1,2.67,2.77Zm0,2A.27.27,0,0,1,3,4.45H6.12a.28.28,0,0,1,0,.56H3A.27.27,0,0,1,2.67,4.73ZM2.14,6V5.59a.09.09,0,0,1,.08-.09H6.84a.09.09,0,0,1,.09.09V6a.09.09,0,0,1-.09.09H2.22A.09.09,0,0,1,2.14,6ZM3,6.56H6.12a.28.28,0,0,1,0,.56H3a.28.28,0,0,1,0-.56ZM1.67,14.91a.2.2,0,0,1-.19-.2v-.44a.19.19,0,0,1,.19-.19h2a.24.24,0,0,0,.24-.25.24.24,0,0,0-.24-.24H2.34l.6-1.81a4.67,4.67,0,0,0,.25-1.53V7.61H5.87v2.64a4.67,4.67,0,0,0,.25,1.53l.6,1.81H4.85a.25.25,0,1,0,0,.49H7.39a.19.19,0,0,1,.2.19v.44a.2.2,0,0,1-.2.2H1.67Zm6.65,1.32H.74A.26.26,0,0,1,.49,16v-.32a.25.25,0,0,1,.25-.25H8.32a.25.25,0,0,1,.25.25V16a.26.26,0,0,1-.25.26ZM14.51,16a.26.26,0,0,1-.25.26H9a.75.75,0,0,0,0-.26v-.32a.69.69,0,0,0,0-.25H11.5a.25.25,0,0,0,0-.49H8.27a.19.19,0,0,1-.19-.2v-.44a.18.18,0,0,1,.19-.19h5.06a.18.18,0,0,1,.19.19v.44a.19.19,0,0,1-.19.2h-.68a.25.25,0,1,0,0,.49h1.61a.25.25,0,0,1,.25.25Z"/></g></g></svg>