<svg xmlns="http://www.w3.org/2000/svg" viewBox="0 0 28.3 23.74"><defs><style>.cls-1{fill:#4f4f4f;}</style></defs><g id="Camada_2" data-name="Camada 2"><g id="Camada_1-2" data-name="Camada 1"><g id="Camada_2-2" data-name="Camada 2"><g id="Camada_1-2-2" data-name="Camada 1-2"><path class="cls-1" d="M26.7,0H1.6A1.6,1.6,0,0,0,0,1.6V18.49a1.6,1.6,0,0,0,1.6,1.6h9.26l-.28,1.37H8.67a.46.46,0,0,0-.45.46v1.36a.46.46,0,0,0,.45.46h11a.46.46,0,0,0,.45-.46V21.89a.45.45,0,0,0-.45-.45H17.72l-.27-1.37H26.7a1.6,1.6,0,0,0,1.6-1.6V1.6A1.6,1.6,0,0,0,26.7,0ZM19.17,22.37v.45h-10v-.45Zm-7.66-.91.28-1.38h4.73l.27,1.38Zm15.88-3a.68.68,0,0,1-.68.68H1.6a.67.67,0,0,1-.68-.68V17.34H27.39Zm0-2.06H.91V1.6A.69.69,0,0,1,1.59.91H26.7a.68.68,0,0,1,.69.68h0Z"/><path class="cls-1" d="M14.61,17.8H13.7a.48.48,0,0,0-.51.41.47.47,0,0,0,.41.51h1a.47.47,0,0,0,.5-.41.46.46,0,0,0-.41-.51Z"/></g></g></g></g></svg>