<svg xmlns="http://www.w3.org/2000/svg" viewBox="0 0 25 21.52"><defs><style>.cls-1{fill:#f10e34;}</style></defs><g id="Camada_2" data-name="Camada 2"><g id="Capa_1" data-name="Capa 1"><path class="cls-1" d="M12.25,17a4.22,4.22,0,0,1-2-.36.37.37,0,0,0-.5.15.36.36,0,0,0,.15.49l.23.11a3.23,3.23,0,0,0-1.71,1.8,3.23,3.23,0,0,0-1.7-1.8,3.21,3.21,0,0,0,1.7-1.79,2.6,2.6,0,0,0,.14.29A.36.36,0,0,0,9,16a.36.36,0,0,0,.16-.49,4,4,0,0,1-.39-1.89A.4.4,0,0,0,8,13.48c0,.12.16,2.1-1.27,3a4.1,4.1,0,0,1-2.2.46.41.41,0,0,0,0,.79,4.06,4.06,0,0,1,2.22.46A3.45,3.45,0,0,1,8,21.12a.4.4,0,0,0,.79.11c.05-.15-.16-2.06,1.21-3a4,4,0,0,1,2.22-.49A.4.4,0,0,0,12.25,17Z"/><path class="cls-1" d="M24.61,9.8c-.67-.07-5.45.6-7.53-3.78a10.4,10.4,0,0,1-.88-4.66A.44.44,0,0,0,15.71,1a.43.43,0,0,0-.4.43v1c-.17,3.26-1.65,6-4.77,7a11.8,11.8,0,0,1-3.66.39.45.45,0,0,0,0,.88c.41.09,3.48-.41,5.87,1.58a.39.39,0,0,0,.52,0,.38.38,0,0,0,0-.52,7.4,7.4,0,0,0-2.93-1.45,7.28,7.28,0,0,0,5.47-5.81,7.28,7.28,0,0,0,5.48,5.81,7.28,7.28,0,0,0-5.48,5.8,8.69,8.69,0,0,0-1.32-3,.37.37,0,0,0-.51-.09.38.38,0,0,0-.09.51,6.59,6.59,0,0,1,.6,1,10.15,10.15,0,0,1,.87,4.6.45.45,0,1,0,.9-.1c-.05-1.21.05-5.33,3.37-7.28a9.75,9.75,0,0,1,5.07-1A.45.45,0,0,0,24.61,9.8Z"/><path class="cls-1" d="M8,3.78c-.25,0-2.2.29-3.07-1.47A4.12,4.12,0,0,1,4.57.45.4.4,0,0,0,3.78.31c0,.12.16,2.1-1.27,3a3.81,3.81,0,0,1-2.16.45.41.41,0,0,0,0,.8A3.91,3.91,0,0,1,2.52,5,3.15,3.15,0,0,1,3.77,7.55a1.73,1.73,0,0,0,0,.51A.4.4,0,0,0,4.57,8,4.39,4.39,0,0,1,5,6a.37.37,0,0,0-.17-.49.36.36,0,0,0-.49.17c0,.09-.09.18-.13.28a3.23,3.23,0,0,0-1.7-1.8,3.21,3.21,0,0,0,1.7-1.79A3.23,3.23,0,0,0,5.88,4.17l-.24.12a.37.37,0,0,0-.15.5.37.37,0,0,0,.5.15,4,4,0,0,1,2-.37A.4.4,0,0,0,8,3.78Z"/></g></g></svg>