<svg xmlns="http://www.w3.org/2000/svg" viewBox="0 0 23 23"><defs><style>.cls-1{fill:#4f4f4f;}</style></defs><g id="Camada_2" data-name="Camada 2"><g id="Capa_1" data-name="Capa 1"><path class="cls-1" d="M21.85,0H8.05A1.14,1.14,0,0,0,6.9,1.15V9.58h-5A1.15,1.15,0,0,0,.77,10.73V18.4H.38a.38.38,0,0,0-.38.38A1.92,1.92,0,0,0,1.92,20.7H14.18a1.92,1.92,0,0,0,1.92-1.91h0a.38.38,0,0,0-.38-.38h-.39V14.18h4.22a.38.38,0,1,0,0-.76h-2L17,11.5h4.86A1.14,1.14,0,0,0,23,10.35V1.15A1.14,1.14,0,0,0,21.85,0ZM1.53,10.73a.38.38,0,0,1,.39-.38H14.18a.38.38,0,0,1,.39.38V18.4H9.2a.38.38,0,0,0-.38.38H7.28a.38.38,0,0,0-.38-.38H1.53ZM15,19.6a1.18,1.18,0,0,1-.82.33H1.92a1.16,1.16,0,0,1-1.09-.76H6.52a.38.38,0,0,0,.38.38H9.2a.38.38,0,0,0,.38-.38h5.69A1.3,1.3,0,0,1,15,19.6Zm.33-6.18V11.5h.86l.55,1.92Zm6.9-3.07a.38.38,0,0,1-.38.38H15.33a1.15,1.15,0,0,0-1.15-1.15H7.67V1.15A.38.38,0,0,1,8.05.77h13.8a.38.38,0,0,1,.38.38Z"/><path class="cls-1" d="M21.08,14.57H18a1.14,1.14,0,0,0-1.15,1.15v6.13A1.14,1.14,0,0,0,18,23h3.06a1.14,1.14,0,0,0,1.15-1.15V15.72A1.14,1.14,0,0,0,21.08,14.57Zm.39,7.28a.38.38,0,0,1-.39.38H18a.38.38,0,0,1-.39-.38V15.72a.38.38,0,0,1,.39-.39h3.06a.38.38,0,0,1,.39.39Z"/></g></g></svg>