<svg xmlns="http://www.w3.org/2000/svg" viewBox="0 0 25.1 21.76"><defs><style>.cls-1{fill:#4f4f4f;}</style></defs><g id="Camada_2" data-name="Camada 2"><g id="Capa_1" data-name="Capa 1"><path class="cls-1" d="M23.85,10.88h-.42V2.09A2.1,2.1,0,0,0,21.34,0H3.77a2.1,2.1,0,0,0-2.1,2.09V8.37H1.26A1.25,1.25,0,0,0,0,9.62V20.5a1.26,1.26,0,0,0,1.26,1.26H17.15a.42.42,0,0,0,.42-.42,2.08,2.08,0,0,0-2.09-2.09H14.23V16.74h5V20.5a1.26,1.26,0,0,0,1.25,1.26h3.35A1.26,1.26,0,0,0,25.1,20.5V12.13A1.25,1.25,0,0,0,23.85,10.88ZM9.2,20.5a.41.41,0,0,1-.41.42H1.26a.42.42,0,0,1-.42-.42v-.42H9.2Zm0-1.25H.84V9.62a.42.42,0,0,1,.42-.42H8.79a.41.41,0,0,1,.41.42Zm6.28.83a1.25,1.25,0,0,1,1.18.84H10A1.2,1.2,0,0,0,10,20.5v-.42ZM10,19.25V16.74h.84v2.51Zm1.67,0V16.74h1.68v2.51Zm7.54-3.35H10V13.39h9.21Zm0-3.77v.42H10V9.62a1.26,1.26,0,0,0-.14-.57h0L14.06,4.9a.42.42,0,0,0-.59-.59L9.33,8.45l0,0a1.26,1.26,0,0,0-.51-.11H2.51V2.09A1.25,1.25,0,0,1,3.77.84H21.34a1.25,1.25,0,0,1,1.25,1.25v8.79H20.5A1.25,1.25,0,0,0,19.25,12.13Zm5,8.37a.42.42,0,0,1-.42.42H20.5a.42.42,0,0,1-.42-.42v-.42h4.19Zm0-1.25H20.08V12.13a.42.42,0,0,1,.42-.42h3.35a.42.42,0,0,1,.42.42Z"/><path class="cls-1" d="M5,13.46a.42.42,0,0,0-.59,0L2.63,15.24a.42.42,0,0,0,.58.6h0L5,14.05C5.07,13.92,4.92,13.68,5,13.46Z"/><path class="cls-1" d="M7.5,13.46a.41.41,0,0,0-.58,0L5.14,15.24a.42.42,0,0,0,.58.6h0l1.78-1.78A.41.41,0,0,0,7.5,13.46Z"/><path class="cls-1" d="M16.6,4.31a.41.41,0,0,0-.58,0L11.88,8.45a.42.42,0,0,0,.58.6h0L16.61,4.9A.41.41,0,0,0,16.6,4.31Z"/><path class="cls-1" d="M23.05,14.59a.43.43,0,0,0-.58,0l-1.18,1.19a.41.41,0,0,0,0,.59.42.42,0,0,0,.59,0h0l1.18-1.19A.41.41,0,0,0,23.05,14.59Z"/><path class="cls-1" d="M12.56,14.23h0a.42.42,0,1,0,0,.83.42.42,0,0,0,.42-.42A.41.41,0,0,0,12.56,14.23Z"/><path class="cls-1" d="M13.39,1.67H11.71a.42.42,0,0,0,0,.84h1.68a.42.42,0,0,0,0-.84Z"/></g></g></svg>