<svg xmlns="http://www.w3.org/2000/svg" viewBox="0 0 17.78 16.02"><defs><style>.cls-1{fill:#4f4f4f;}</style></defs><g id="Camada_2" data-name="Camada 2"><g id="Capa_1" data-name="Capa 1"><circle class="cls-1" cx="5.18" cy="9.83" r="0.71"/><circle class="cls-1" cx="12.6" cy="9.83" r="0.71"/><path class="cls-1" d="M17.78,9.53a2.07,2.07,0,0,0-1.71-2V7.18a7.18,7.18,0,0,0-14.36,0v.31a2.08,2.08,0,0,0,0,4.1A4.14,4.14,0,0,0,3.9,15.06a10.24,10.24,0,0,0,5,1,10.31,10.31,0,0,0,5-1A4.15,4.15,0,0,0,16,11.59,2.09,2.09,0,0,0,17.78,9.53Zm-17,0a1.34,1.34,0,0,1,1-1.29v2.59A1.35,1.35,0,0,1,.74,9.53ZM15.33,11a3.57,3.57,0,0,1-1.8,3.41,9.58,9.58,0,0,1-4.64.87,9.53,9.53,0,0,1-4.63-.87A3.56,3.56,0,0,1,2.45,11V7.18A6.45,6.45,0,0,1,7,1a2.91,2.91,0,0,1,3.1,2.54A1.46,1.46,0,0,1,8.67,5a1.1,1.1,0,0,1-1.1-1.1.8.8,0,0,1,.81-.8.37.37,0,0,0,0-.74A1.54,1.54,0,0,0,6.84,3.91,1.83,1.83,0,0,0,8.67,5.75a2.2,2.2,0,0,0,2.2-2.2,3.14,3.14,0,0,0-1-2.2A3.78,3.78,0,0,0,9,.74a6.44,6.44,0,0,1,6.35,6.44V11Zm.74-.18V8.24a1.35,1.35,0,0,1,0,2.59Z"/><path class="cls-1" d="M10.31,10.85a2,2,0,0,1-2.84,0,.36.36,0,0,0-.52,0,.37.37,0,0,0,0,.52,2.75,2.75,0,0,0,3.88,0,.37.37,0,0,0-.52-.52Z"/></g></g></svg>