<svg xmlns="http://www.w3.org/2000/svg" viewBox="0 0 17.8 16.07"><defs><style>.cls-1{fill:#f10e34;}</style></defs><g id="Camada_2" data-name="Camada 2"><g id="Camada_1-2" data-name="Camada 1"><g id="Camada_2-2" data-name="Camada 2"><g id="Capa_1" data-name="Capa 1"><circle class="cls-1" cx="5.2" cy="9.83" r="0.71"/><circle class="cls-1" cx="12.62" cy="9.83" r="0.71"/><path class="cls-1" d="M17.8,9.53a2.07,2.07,0,0,0-1.71-2V7.18a7.18,7.18,0,0,0-14.36,0v.31a2.08,2.08,0,0,0,0,4.1,4.14,4.14,0,0,0,2.19,3.47,10.25,10.25,0,0,0,5,1,10.3,10.3,0,0,0,5-1A4.17,4.17,0,0,0,16,11.59,2.1,2.1,0,0,0,17.8,9.53Zm-17,0a1.33,1.33,0,0,1,1-1.29v2.59a1.34,1.34,0,0,1-1-1.3ZM15.35,11a3.58,3.58,0,0,1-1.8,3.41,9.64,9.64,0,0,1-4.64.87,9.58,9.58,0,0,1-4.63-.87A3.56,3.56,0,0,1,2.47,11V7.18A6.44,6.44,0,0,1,7,1a2.91,2.91,0,0,1,3.1,2.54A1.47,1.47,0,0,1,8.69,5a1.1,1.1,0,0,1-1.1-1.1.8.8,0,0,1,.8-.8h0a.38.38,0,0,0,.37-.37.37.37,0,0,0-.37-.37A1.54,1.54,0,0,0,6.86,3.9h0A1.83,1.83,0,0,0,8.68,5.75h0a2.21,2.21,0,0,0,2.2-2.2,3.16,3.16,0,0,0-1-2.2A3.78,3.78,0,0,0,9,.74a6.44,6.44,0,0,1,6.35,6.44V11Zm.74-.18V8.24a1.35,1.35,0,0,1,0,2.59Z"/><path class="cls-1" d="M10.33,10.85a2,2,0,0,1-2.83,0h0a.36.36,0,0,0-.51,0H7a.37.37,0,0,0,0,.52,2.75,2.75,0,0,0,3.88,0,.37.37,0,0,0-.06-.52A.36.36,0,0,0,10.33,10.85Z"/></g></g></g></g></svg>