<svg xmlns="http://www.w3.org/2000/svg" viewBox="0 0 15.01 20"><defs><style>.cls-1{fill:#4f4f4f;}</style></defs><g id="Camada_2" data-name="Camada 2"><g id="Camada_1-2" data-name="Camada 1"><g id="Camada_2-2" data-name="Camada 2"><g id="Camada_1-2-2" data-name="Camada 1-2"><path class="cls-1" d="M7.81,17.27a.38.38,0,0,1-.39.39A.4.4,0,0,1,7,17.28H7a.41.41,0,0,1,.81-.05Z"/><path class="cls-1" d="M5.5,10.1a6.3,6.3,0,0,0-2.41,4.2A1.18,1.18,0,0,0,2,15.47V17a2.72,2.72,0,0,0-2,2.61A.38.38,0,0,0,.37,20H14.46a.38.38,0,0,0,.39-.39,2.73,2.73,0,0,0-2-2.62V15.47a1.17,1.17,0,0,0-1-1.17,3.4,3.4,0,0,1,.11-1.76H14a.39.39,0,0,0,.37-.27,11,11,0,0,0,.28-6.48C13.8,2.45,10.59,0,7.88,0h-2a.38.38,0,0,0-.39.37V2.6a2.72,2.72,0,0,0-2.3,2.53L1.52,6.8a1.17,1.17,0,0,0,0,1.65h0l1,.95a1.56,1.56,0,0,0,2.19,0c.24-.19,1-1.3,2.22-.86A5.56,5.56,0,0,1,5.5,10.1Zm6.61,5.37v1.41H9a.38.38,0,0,0-.39.37v0a.38.38,0,0,0,.39.39h3.12A2,2,0,0,1,14,19.22H.82a1.94,1.94,0,0,1,1.91-1.56H5.86a.38.38,0,0,0,.39-.39.38.38,0,0,0-.37-.39H2.73V15.47a.4.4,0,0,1,.4-.39h8.59A.38.38,0,0,1,12.11,15.47ZM13.88,6a10,10,0,0,1-.18,5.78H12.16a8.89,8.89,0,0,0,.3-5.42A5.2,5.2,0,0,0,8.63,2.68V1.56A1.59,1.59,0,0,0,8.45.82,7.11,7.11,0,0,1,13.88,6ZM7.61,8.86a2.79,2.79,0,0,0,2-.29.39.39,0,0,0,.17-.52.38.38,0,0,0-.5-.19h0A1.86,1.86,0,0,1,7.46,8a2.37,2.37,0,0,0-2.14-.06,4.06,4.06,0,0,0-1.19,1,.78.78,0,0,1-1.1,0l-1-1a.39.39,0,0,1,0-.55L3.85,5.57A.35.35,0,0,0,4,5.29,1.93,1.93,0,0,1,5.9,3.35.38.38,0,0,0,6.29,3V.78h.79a.76.76,0,0,1,.77.77h0V3a.39.39,0,0,0,.33.38A4.43,4.43,0,0,1,11.7,6.53a8.59,8.59,0,0,1-.45,5.5A4.39,4.39,0,0,0,11,14.3H3.88A5.58,5.58,0,0,1,6,10.72,6.24,6.24,0,0,0,7.61,8.86Z"/><path class="cls-1" d="M6.25,5.31H5.47a.38.38,0,0,0-.39.39.38.38,0,0,0,.37.39h.8a.38.38,0,0,0,.39-.37v0A.38.38,0,0,0,6.25,5.31Z"/></g></g></g></g></svg>