<svg xmlns="http://www.w3.org/2000/svg" viewBox="0 0 20.16 21.9"><defs><style>.cls-1{fill:#f10e34;}</style></defs><g id="Camada_2" data-name="Camada 2"><g id="Camada_1-2" data-name="Camada 1"><g id="Camada_2-2" data-name="Camada 2"><g id="Capa_1" data-name="Capa 1"><path class="cls-1" d="M20.1,8.75l-3-6a.81.81,0,0,0-.28-.3L13.32.22a1.32,1.32,0,0,0-1.38,0A3.44,3.44,0,0,1,8.24.16a1.26,1.26,0,0,0-1.31,0L6.32.57h0l-3,1.91A.83.83,0,0,0,3,2.79l-2.95,6a.54.54,0,0,0,.21.71L3.49,11.3V21.38A.52.52,0,0,0,4,21.9H16.14a.52.52,0,0,0,.52-.52V17.92a.33.33,0,0,0-.37-.28.34.34,0,0,0-.28.28v3.33H4.14v-14A.32.32,0,1,0,3.5,7.2a.14.14,0,0,0,0,.09v3.28L.68,8.94,3.59,3.08,3.64,3,6.27,1.37A3.76,3.76,0,0,0,7,2.84.37.37,0,0,0,7.28,3a.32.32,0,0,0,.26-.51h0A3.31,3.31,0,0,1,6.84,1L7.27.75h0a2.83,2.83,0,0,0,.84,1.56,2.79,2.79,0,0,0,1.95.8A2.81,2.81,0,0,0,12,2.31,2.72,2.72,0,0,0,12.84.69L13,.75l.35.22a3.32,3.32,0,0,1-3.24,2.64,3.35,3.35,0,0,1-1.64-.43A.34.34,0,0,0,8,3.3a.33.33,0,0,0,.13.44h0a3.94,3.94,0,0,0,2,.52,4,4,0,0,0,3.81-2.91L16.52,3a.07.07,0,0,1,0,.05l2.91,5.86-2.81,1.62V7.27A.33.33,0,0,0,16,7.18v9.45a.33.33,0,0,0,.37.28.33.33,0,0,0,.28-.28V11.3l3.23-1.84A.55.55,0,0,0,20.1,8.75Zm-10-6.29a2.12,2.12,0,0,1-1.5-.58A2.14,2.14,0,0,1,8,.76a4.09,4.09,0,0,0,4.19.1A2.14,2.14,0,0,1,10.08,2.46Z"/></g></g></g></g></svg>