<svg xmlns="http://www.w3.org/2000/svg" viewBox="0 0 25.7 19.05"><defs><style>.cls-1{fill:#f10e34;}</style></defs><g id="Camada_2" data-name="Camada 2"><g id="Capa_1" data-name="Capa 1"><path class="cls-1" d="M25.6,15.79a3.31,3.31,0,0,0-1.88-1.85,14.71,14.71,0,0,1-4.39-3.62l.21-.13a.38.38,0,0,0-.4-.65l-.31.19c-.19-.21-.36-.44-.54-.66l.31-.2a.37.37,0,0,0,.11-.53.38.38,0,0,0-.52-.11l-.36.23c-.2-.27-.4-.54-.58-.8l.26-.17A.39.39,0,0,0,17.64,7a.4.4,0,0,0-.53-.12L16.82,7a17.68,17.68,0,0,1-1.21-2.15A1.85,1.85,0,0,1,15.93,3a.38.38,0,0,0-.54-.54,2.47,2.47,0,0,0-.6,2.32,14.14,14.14,0,0,1-2.28.44c-2.28.23-3.41-.37-3.95-.9A6.66,6.66,0,0,1,6.48.36.39.39,0,0,0,6.21,0a.38.38,0,0,0-.42.13L.08,7.59A.34.34,0,0,0,0,7.88a.35.35,0,0,0,.16.26c.11.07,10.72,6.92,13.7,8.74a17.13,17.13,0,0,0,8.27,2.17,9.5,9.5,0,0,0,2-.19.36.36,0,0,0,.23-.15L25.6,17h0l0,0h0s0,0,0-.05h0A2,2,0,0,0,25.6,15.79ZM9.12,11.41C12,13.27,14,14.53,15.06,15.15a17,17,0,0,0,8.27,2.18c.4,0,.78,0,1.14,0l-.6.87A13,13,0,0,1,19.35,18a15.09,15.09,0,0,1-5.08-1.81C11.6,14.6,2.8,8.93.94,7.72l.81-1L7.87,10.6a.36.36,0,0,0,.2.06.37.37,0,0,0,.32-.17A.38.38,0,0,0,8.28,10L6.1,8.56a5,5,0,0,0,.6-2.41A5.07,5.07,0,0,0,5.55,2.94a.38.38,0,0,0-.54,0,.37.37,0,0,0,0,.53,4.33,4.33,0,0,1,1,2.73,4.28,4.28,0,0,1-.49,2L2.21,6.06,5.88,1.29A8,8,0,0,0,8,4.83c1.94,1.94,5.87,1,7,.65a18.58,18.58,0,0,0,1.12,1.94l-1.3.81a.38.38,0,0,0,.2.7.36.36,0,0,0,.2-.06l1.32-.81.59.82-1,.67a.38.38,0,0,0,.21.7.36.36,0,0,0,.2-.06l1.08-.7.52.65-1,.58a.39.39,0,0,0-.12.53.37.37,0,0,0,.32.18.46.46,0,0,0,.2,0l1.06-.65a14.8,14.8,0,0,0,4.73,3.9c1.38.64,1.55,1.44,1.54,1.81a13.29,13.29,0,0,1-4.4-.13,15,15,0,0,1-5.08-1.81c-1-.62-3-1.87-5.93-3.74a.38.38,0,0,0-.52.12A.39.39,0,0,0,9.12,11.41Z"/></g></g></svg>