<svg xmlns="http://www.w3.org/2000/svg" viewBox="0 0 17.29 30"><defs><style>.cls-1{fill:#4f4f4f;}</style></defs><g id="Camada_2" data-name="Camada 2"><g id="Capa_1" data-name="Capa 1"><path class="cls-1" d="M15.09,0H2.2A2.21,2.21,0,0,0,0,2.2V27.8A2.21,2.21,0,0,0,2.2,30H15.09a2.21,2.21,0,0,0,2.2-2.2V2.2A2.21,2.21,0,0,0,15.09,0Zm1.32,23.85H4a.43.43,0,0,0-.44.44.44.44,0,0,0,.44.44H16.41V27.8a1.33,1.33,0,0,1-1.32,1.32H2.2A1.32,1.32,0,0,1,.88,27.8V24.73H2.2a.44.44,0,0,0,.44-.44.44.44,0,0,0-.44-.44H.88V4.39H16.41Zm0-20.33H.88V2.2A1.32,1.32,0,0,1,2.2.88H15.09A1.33,1.33,0,0,1,16.41,2.2Z"/><path class="cls-1" d="M10.4,1.76H8.64a.44.44,0,0,0-.44.44.44.44,0,0,0,.44.44H10.4a.44.44,0,0,0,.44-.44A.44.44,0,0,0,10.4,1.76Z"/><path class="cls-1" d="M8.64,25.61A1.32,1.32,0,1,0,10,26.92,1.32,1.32,0,0,0,8.64,25.61Zm0,1.75a.44.44,0,0,1-.44-.44.44.44,0,0,1,.88,0A.44.44,0,0,1,8.64,27.36Z"/><circle class="cls-1" cx="6.88" cy="2.2" r="0.44"/></g></g></svg>