<svg xmlns="http://www.w3.org/2000/svg" viewBox="0 0 17.04 17.04"><defs><style>.cls-1{fill:#f10e34;}</style></defs><g id="Camada_2" data-name="Camada 2"><g id="Camada_1-2" data-name="Camada 1"><path class="cls-1" d="M8.6,0A8.52,8.52,0,1,0,17,8.6v0h0A8.51,8.51,0,0,0,8.6,0Zm6.6,4.09L14.61,6.6l-3.11,1L8.88,5.54V2.46l3-1.19A7.91,7.91,0,0,1,15.2,4.09Zm0,8.79-2.81.44-1.54-2,.79-3.13,3.07-1L16.47,9.3a7.9,7.9,0,0,1-1.23,3.58Zm-10.42.44L2,12.88A8,8,0,0,1,.68,9.26L2.45,7.15l3.07,1,.78,3.13ZM.65,8.41a8.05,8.05,0,0,1,.93-3.63l.46,2Zm6.18,2.67L6,8.06,8.6,6l2.52,2-.75,3Zm8.33-4.34.46-2a8.05,8.05,0,0,1,.93,3.63ZM11,1,8.6,2,6,1A7.92,7.92,0,0,1,11,1Zm-5.77.31,3,1.19v3L5.7,7.63l-3.11-1L2,4.09A8,8,0,0,1,5.32,1.28ZM2.43,13.53l2.31.36,1.39,2.19A8,8,0,0,1,2.43,13.53ZM7,16.3l-1.7-2.66,1.5-2h3.7l1.52,2-1.48,2.59A7.84,7.84,0,0,1,7,16.29Zm4.33-.3,1.21-2.12,2.28-.36A8,8,0,0,1,11.28,16Z"/></g></g></svg>