<svg xmlns="http://www.w3.org/2000/svg" viewBox="0 0 30.44 29.39"><defs><style>.cls-1,.cls-3,.cls-4{fill:#4f4f4f;}.cls-2{fill:none;stroke-linejoin:round;}.cls-2,.cls-3,.cls-4{stroke:#4f4f4f;stroke-linecap:round;}.cls-2,.cls-3{stroke-width:1.24px;}.cls-3,.cls-4{stroke-miterlimit:10;}</style></defs><g id="Camada_2" data-name="Camada 2"><g id="Camada_1-2" data-name="Camada 1"><path class="cls-1" d="M21.38,9.84a.31.31,0,0,1,.31.31V22.64a.31.31,0,0,1-.31.31H5.18a.31.31,0,0,1-.32-.31V10.15a.31.31,0,0,1,.32-.31h16.2m0-1.24H5.18a1.55,1.55,0,0,0-1.56,1.55V22.64a1.55,1.55,0,0,0,1.56,1.55h16.2a1.55,1.55,0,0,0,1.56-1.55V10.15A1.55,1.55,0,0,0,21.38,8.6Z"/><path class="cls-1" d="M28.89,6.13a.31.31,0,0,1,.31.31V26.35a.31.31,0,0,1-.31.31H1.56a.31.31,0,0,1-.32-.31V6.44a.31.31,0,0,1,.32-.31H28.89m0-1.24H1.56A1.56,1.56,0,0,0,0,6.44V26.35A1.56,1.56,0,0,0,1.56,27.9H28.89a1.56,1.56,0,0,0,1.55-1.55V6.44a1.56,1.56,0,0,0-1.55-1.55Z"/><polyline class="cls-2" points="10.25 0.62 15.21 5.48 20.19 0.64"/><line class="cls-3" x1="2.79" y1="27.51" x2="2.79" y2="28.77"/><line class="cls-3" x1="27.66" y1="27.51" x2="27.66" y2="28.77"/><line class="cls-4" x1="26.33" y1="18.21" x2="26.33" y2="21.47"/><circle class="cls-1" cx="26.33" cy="14.39" r="0.5"/><circle class="cls-1" cx="26.33" cy="12.63" r="0.5"/></g></g></svg>