<svg xmlns="http://www.w3.org/2000/svg" viewBox="0 0 31.84 35.51"><defs><style>.cls-1{fill:#f10e34;}</style></defs><g id="Camada_2" data-name="Camada 2"><g id="Camada_1-2" data-name="Camada 1"><g id="Camada_2-2" data-name="Camada 2"><g id="Camada_1-2-2" data-name="Camada 1-2"><path class="cls-1" d="M31.68,28.14a72.66,72.66,0,0,1-10.27-14V11.83a14,14,0,0,1,.29-2.24A.52.52,0,0,0,21.28,9a.52.52,0,0,0-.62.42,17.4,17.4,0,0,0-.28,1.9H11.46a46.8,46.8,0,0,0-1.17-5.77,1.54,1.54,0,0,1,.92-.9c1.36-.51,3.67.53,4.45,1a.53.53,0,0,0,.52,0c.78-.44,3.09-1.48,4.45-1a1.54,1.54,0,0,1,.92.9c-.08.3-.25,1-.44,1.79a.53.53,0,0,0,.37.65h0a.54.54,0,0,0,.64-.4c.25-1.08.47-1.92.47-1.92a.44.44,0,0,0,0-.32,2.74,2.74,0,0,0-1.12-1.45A5.37,5.37,0,0,0,19.71.14.48.48,0,0,0,19.28,0a.49.49,0,0,0-.36.25,9.36,9.36,0,0,0-1.19,3.52l-.25.08a13.32,13.32,0,0,0-1.56.67,12.63,12.63,0,0,0-1.56-.67l-.25-.08A9.32,9.32,0,0,0,12.92.27.48.48,0,0,0,12.55,0a.52.52,0,0,0-.43.12,5.46,5.46,0,0,0-1.76,3.73A2.72,2.72,0,0,0,9.24,5.32a.58.58,0,0,0,0,.32,39.6,39.6,0,0,1,1.21,6.19v2.32a72.29,72.29,0,0,1-10.28,14,.53.53,0,0,0,0,.75l0,0a23.73,23.73,0,0,0,3.54,2.24h0a.48.48,0,0,0-.1.4.5.5,0,0,0,.21.35,17.36,17.36,0,0,0,2.7,1.5.59.59,0,0,0,.22,0,.52.52,0,0,0,.48-.31.52.52,0,0,0-.26-.7A22.48,22.48,0,0,1,4.9,31.37,76.71,76.71,0,0,0,12.59,17.9a.53.53,0,0,0-.28-.69.52.52,0,0,0-.68.24v0A75.34,75.34,0,0,1,4.38,30.31a25.8,25.8,0,0,1-3-1.86,75,75,0,0,0,9.94-13.63h9.3a75,75,0,0,0,9.94,13.63,24.94,24.94,0,0,1-3.06,1.86,75.35,75.35,0,0,1-7.3-12.84.53.53,0,0,0-.7-.27h0a.51.51,0,0,0-.27.68h0a75.12,75.12,0,0,0,7.69,13.47,21.87,21.87,0,0,1-11,3.1,21.44,21.44,0,0,1-7-1.23.53.53,0,0,0-.68.31h0a.54.54,0,0,0,.32.67,22.39,22.39,0,0,0,7.38,1.29A22.35,22.35,0,0,0,28,31.91a.52.52,0,0,0,.21-.35.51.51,0,0,0-.11-.4h0a21.36,21.36,0,0,0,3.54-2.24.51.51,0,0,0,.2-.38A.54.54,0,0,0,31.68,28.14ZM19.5,1.43a4.52,4.52,0,0,1,.87,2.05,4.48,4.48,0,0,0-1.55,0A8.66,8.66,0,0,1,19.5,1.43Zm-7.17,0A8,8,0,0,1,13,3.52a4.48,4.48,0,0,0-1.55,0A4.57,4.57,0,0,1,12.33,1.43Zm8,12.33H11.48v-1.4h8.87Z"/></g></g></g></g></svg>