<svg xmlns="http://www.w3.org/2000/svg" viewBox="0 0 17.88 26"><defs><style>.cls-1{fill:#f10e34;}</style></defs><g id="Camada_2" data-name="Camada 2"><g id="Capa_1" data-name="Capa 1"><path class="cls-1" d="M17.88,13a8.09,8.09,0,0,0-2-5.38v0l-1-3.1a1.21,1.21,0,0,0-.57-.68V1.22A1.22,1.22,0,0,0,13,0H6.5A1.22,1.22,0,0,0,5.28,1.22V3.81a1.21,1.21,0,0,0-.57.68l-1,3.1v0A8.09,8.09,0,0,0,2,10.56H1.22A1.22,1.22,0,0,0,0,11.78v2.44a1.22,1.22,0,0,0,1.22,1.22H2a8.09,8.09,0,0,0,1.67,2.94v0l1,3.1a1.21,1.21,0,0,0,.57.68v2.59A1.22,1.22,0,0,0,6.5,26H13a1.22,1.22,0,0,0,1.22-1.22V22.19a1.21,1.21,0,0,0,.57-.68l1-3.1v0A8.09,8.09,0,0,0,17.88,13ZM5.48,4.75a.41.41,0,0,1,.39-.28H11a.41.41,0,0,0,0-.81H6.09V1.22A.41.41,0,0,1,6.5.81H13a.41.41,0,0,1,.41.41V3.66h-.82a.41.41,0,0,0,0,.81h1a.41.41,0,0,1,.39.28l.58,1.73a8.15,8.15,0,0,0-9.7,0ZM1.22,14.63a.41.41,0,0,1-.41-.41V11.78a.4.4,0,0,1,.41-.4h.57A7.81,7.81,0,0,0,1.63,13a8,8,0,0,0,.16,1.63ZM9.75,5.69A7.31,7.31,0,1,1,2.44,13,7.32,7.32,0,0,1,9.75,5.69ZM14,21.25a.41.41,0,0,1-.39.28h-1a.41.41,0,0,0,0,.81h.82v2.44a.41.41,0,0,1-.41.41H6.5a.41.41,0,0,1-.41-.41V22.34H11a.41.41,0,0,0,0-.81H5.87a.41.41,0,0,1-.39-.28L4.9,19.52a8.11,8.11,0,0,0,9.7,0Z"/><path class="cls-1" d="M9.75,19.5a6.51,6.51,0,0,0,6.5-6.5A6.44,6.44,0,0,0,15,9.1.4.4,0,0,0,14.38,9a.41.41,0,0,0-.08.57,5.58,5.58,0,0,1,1.12,3H15a.41.41,0,0,0,0,.82h.39a5.69,5.69,0,0,1-5.26,5.26v-.39a.41.41,0,0,0-.82,0v.39a5.69,5.69,0,0,1-5.26-5.26h.39a.41.41,0,0,0,0-.82H4.08A5.69,5.69,0,0,1,9.34,7.33v.39a.41.41,0,1,0,.82,0V7.33a5.58,5.58,0,0,1,3,1.12.41.41,0,0,0,.57-.08.4.4,0,0,0-.08-.57,6.44,6.44,0,0,0-3.9-1.3,6.5,6.5,0,0,0,0,13Z"/><path class="cls-1" d="M9.75,8.94a.41.41,0,0,0-.41.4V13h0v.2h0l2,3.25a.4.4,0,0,0,.34.19.36.36,0,0,0,.22-.07.41.41,0,0,0,.13-.56l-2-3.15V9.34A.41.41,0,0,0,9.75,8.94Z"/></g></g></svg>