<svg xmlns="http://www.w3.org/2000/svg" viewBox="0 0 24 30.55"><defs><style>.cls-1{fill:#f10e34;}</style></defs><g id="Camada_2" data-name="Camada 2"><g id="Capa_1" data-name="Capa 1"><path class="cls-1" d="M22.91,14.18v.55H21.79a10.89,10.89,0,0,0-5-8.63L15.27,0H6.55L5,6.1A10.89,10.89,0,0,0,5,24.45l1.53,6.1h8.72l1.53-6.1a10.91,10.91,0,0,0,5-8.63h1.12v.54H24V14.18ZM7.4,1.09h7l1.07,4.29a10.82,10.82,0,0,0-9.17,0Zm7,28.36h-7L6.32,25.16a10.82,10.82,0,0,0,9.17,0Zm-3.51-4.36a9.82,9.82,0,1,1,9.82-9.82A9.83,9.83,0,0,1,10.91,25.09Z"/><polygon class="cls-1" points="11.45 15.11 11.45 8.73 10.36 8.73 10.36 15.44 12.64 18.85 13.54 18.24 11.45 15.11"/></g></g></svg>