<svg xmlns="http://www.w3.org/2000/svg" viewBox="0 0 512 512"><defs><style>.cls-1{fill:#fff;}</style></defs><g id="Camada_2" data-name="Camada 2"><g id="_1_px" data-name="1 px"><path class="cls-1" d="M373.33,512H352a32,32,0,0,1-32-32V394.67a32,32,0,0,1,32-32h21.33a32,32,0,0,1,32,32V480A32,32,0,0,1,373.33,512ZM352,384a10.7,10.7,0,0,0-10.67,10.67V480A10.7,10.7,0,0,0,352,490.67h21.33A10.7,10.7,0,0,0,384,480V394.67A10.7,10.7,0,0,0,373.33,384Z"/><path class="cls-1" d="M256,512H224a10.67,10.67,0,1,1,0-21.33h32A21.34,21.34,0,0,0,256,448H224a10.67,10.67,0,0,1-10.67-10.67v-64A10.67,10.67,0,0,1,224,362.67h64A10.67,10.67,0,1,1,288,384H234.67v42.67H256A42.67,42.67,0,1,1,256,512Z"/><path class="cls-1" d="M437.33,512a10.68,10.68,0,0,1-9.55-15.45l64-128a10.67,10.67,0,0,1,19.09,9.54l-64,128a10.69,10.69,0,0,1-9.54,5.91Z"/><path class="cls-1" d="M442.67,394.67a16,16,0,1,1,16-16A16,16,0,0,1,442.67,394.67Z"/><path class="cls-1" d="M496,512a16,16,0,1,1,16-16A16,16,0,0,1,496,512Z"/><path class="cls-1" d="M160,384H32A32,32,0,0,1,0,352a35,35,0,0,1,.45-5.25L64.62,25.64A32,32,0,0,1,96,0H330.67a32,32,0,0,1,31.38,25.66l58,289.9a10.66,10.66,0,1,1-20.92,4.16l-58-289.9a10.64,10.64,0,0,0-10.45-8.49H96a10.64,10.64,0,0,0-10.45,8.45l-64,320a17.07,17.07,0,0,0-.22,2.2A10.7,10.7,0,0,0,32,362.67H160A10.67,10.67,0,1,1,160,384Z"/><path class="cls-1" d="M493.42,320.64A10.66,10.66,0,0,1,483,312.09L426.45,29.82A10.64,10.64,0,0,0,416,21.33H330.67a10.67,10.67,0,1,1,0-21.33H416a32,32,0,0,1,31.38,25.66l56.51,282.22a10.65,10.65,0,0,1-8.36,12.57A11.58,11.58,0,0,1,493.42,320.64Z"/><path class="cls-1" d="M213.33,192A85.42,85.42,0,0,1,128,106.67V53.33a10.67,10.67,0,0,1,21.33,0v53.34a64,64,0,1,0,128,0V53.33a10.67,10.67,0,0,1,21.34,0v53.34A85.42,85.42,0,0,1,213.33,192Z"/></g></g></svg>