<svg id="_x31__px" height="512" viewBox="0 0 24 24" width="512" xmlns="http://www.w3.org/2000/svg"><path d="m17.5 24h-1c-.827 0-1.5-.673-1.5-1.5v-4c0-.827.673-1.5 1.5-1.5h1c.827 0 1.5.673 1.5 1.5v4c0 .827-.673 1.5-1.5 1.5zm-1-6c-.275 0-.5.225-.5.5v4c0 .275.225.5.5.5h1c.275 0 .5-.225.5-.5v-4c0-.275-.225-.5-.5-.5z"/><path d="m12 24h-1.5c-.276 0-.5-.224-.5-.5s.224-.5.5-.5h1.5c.552 0 1-.448 1-1s-.448-1-1-1h-1.5c-.276 0-.5-.224-.5-.5v-3c0-.276.224-.5.5-.5h3c.276 0 .5.224.5.5s-.224.5-.5.5h-2.5v2h1c1.103 0 2 .897 2 2s-.897 2-2 2z"/><path d="m20.5 24c-.075 0-.151-.017-.224-.053-.247-.124-.347-.424-.224-.671l3-6c.124-.246.424-.347.671-.224.247.124.347.424.224.671l-3 6c-.088.175-.264.277-.447.277z"/><path d="m20.75 18.5c-.414 0-.75-.336-.75-.75s.336-.75.75-.75.75.336.75.75-.336.75-.75.75z"/><path d="m23.25 24c-.414 0-.75-.336-.75-.75s.336-.75.75-.75.75.336.75.75-.336.75-.75.75z"/><path d="m7.5 18h-6c-.827 0-1.5-.673-1.5-1.5 0-.087.009-.162.021-.246l3.008-15.052c.138-.696.756-1.202 1.471-1.202h11c.715 0 1.333.506 1.471 1.203l2.72 13.589c.055.271-.121.534-.393.588-.26.055-.533-.12-.588-.393l-2.72-13.589c-.046-.231-.252-.398-.49-.398h-11c-.238 0-.444.167-.49.396l-3 15.001c-.004.034-.01.066-.01.103 0 .275.225.5.5.5h6c.276 0 .5.224.5.5s-.224.5-.5.5z"/><path d="m23.129 15.03c-.233 0-.441-.164-.489-.401l-2.65-13.231c-.046-.231-.252-.398-.49-.398h-4c-.276 0-.5-.224-.5-.5s.224-.5.5-.5h4c.715 0 1.333.506 1.471 1.203l2.649 13.229c.055.271-.121.535-.392.589-.033.006-.066.009-.099.009z"/><path d="m10 9c-2.206 0-4-1.794-4-4v-2.5c0-.276.224-.5.5-.5s.5.224.5.5v2.5c0 1.654 1.346 3 3 3s3-1.346 3-3v-2.5c0-.276.224-.5.5-.5s.5.224.5.5v2.5c0 2.206-1.794 4-4 4z"/></svg>