<svg xmlns="http://www.w3.org/2000/svg" viewBox="0 0 313.27 52.44"><defs><style>.cls-1{fill:#f10e34;}.cls-2{font-size:15.56px;font-family:Cocogoose;}</style></defs><g id="Camada_2" data-name="Camada 2"><g id="Camada_1-2" data-name="Camada 1"><polygon class="cls-1" points="0 0 0 45.69 30.1 45.69 23.52 34.15 11.54 34.15 11.54 0 0 0"/><path class="cls-1" d="M131.34,1.74a21.06,21.06,0,0,0-9.7,2.35V1.66H110.1V50.9l11.56,1.54,0-10.58a21.23,21.23,0,1,0,9.7-40.12Zm0,30.93A9.7,9.7,0,1,1,141,23,9.7,9.7,0,0,1,131.34,32.67Z"/><polygon points="168.78 12.21 168.78 19.48 177.07 19.48 177.07 28.88 168.78 28.88 168.78 46.37 157.25 46.35 157.25 0.68 187.34 0.68 180.75 12.21 168.78 12.21"/><path class="cls-1" d="M217.23,8l-6.78,9.33A9.71,9.71,0,0,0,195,24.26h0V46.37H183.46V25.28l-.09-13,4.8-8.44H195V6.25A21.21,21.21,0,0,1,217.23,8Z"/><path class="cls-1" d="M85.64,3.22a21,21,0,0,0-5.48.72L80,4c-.21.05-.41.11-.62.18A15.06,15.06,0,0,0,72.27,9l-5.55,6.86-.22.28-.24-.3L60.72,8.93a15.08,15.08,0,0,0-7.13-4.8l-.71-.2a21,21,0,0,0-5.58-.75,21.24,21.24,0,0,0,0,42.47A20.89,20.89,0,0,0,53,44.87c.31-.08.62-.18.93-.28l.48-.16A15.09,15.09,0,0,0,60.74,40c.19-.22.36-.44.53-.66l5-6.2.22-.27.2.26,5,6.26c.16.22.33.42.49.62a15,15,0,0,0,7.1,4.75l.71.21a20.83,20.83,0,0,0,5.62.76,21.24,21.24,0,1,0,0-42.47ZM50.84,33.44a9.69,9.69,0,1,1,3.59-15.6l0,.06a9.54,9.54,0,0,1,.84,1l0,0,4.4,5.46-4.85,6A9.84,9.84,0,0,1,50.84,33.44Zm34.8.71a9.66,9.66,0,0,1-7.09-3.1A8.84,8.84,0,0,1,77.69,30l-4.47-5.55,4.66-5.79.28-.35a9.74,9.74,0,0,1,7.48-3.54,9.7,9.7,0,0,1,9.7,9.69,9.72,9.72,0,0,1-9.7,9.7Z"/><path class="cls-1" d="M292.52,21.79a21.25,21.25,0,0,0-21-18,21,21,0,0,0-5.48.72l-.13,0c-.21,0-.41.11-.62.18a15.06,15.06,0,0,0-7.14,4.8l-5.55,6.86-.22.28-.24-.3v0L246.6,9.5a15.08,15.08,0,0,0-7.13-4.8l-.71-.2a21,21,0,0,0-5.58-.75,21.24,21.24,0,0,0,0,42.47,20.89,20.89,0,0,0,5.68-.78c.31-.08.62-.18.93-.28l.48-.16a15.09,15.09,0,0,0,6.35-4.47c.19-.22.36-.44.53-.66l5-6.2h0l.21-.26.2.26,5,6.26c.16.22.33.42.49.62a15,15,0,0,0,5.41,4.1A21.22,21.22,0,0,0,287,39.5l-7.4-9.19c-.05.09-.11.18-.17.27l-.16.21a9.66,9.66,0,0,1-14.87.83,8.84,8.84,0,0,1-.86-1.06l-1.47-1.83h30.33c.05-.3.1-.61.14-.92s.08-.62.1-.93.05-.55.06-.83,0-.6,0-.91V25A21.45,21.45,0,0,0,292.52,21.79Zm-59.34-6.5a9.69,9.69,0,0,1,7.13,3.12l.05.06a8.33,8.33,0,0,1,.7.85H225.31A9.7,9.7,0,0,1,233.18,15.29ZM240.78,31a9.84,9.84,0,0,1-4.06,3,9.68,9.68,0,0,1-11.52-3.53,9.59,9.59,0,0,1-1-1.75h18.39Zm22.88-11.7a9.7,9.7,0,0,1,15.74,0Z"/><text class="cls-2" transform="translate(306.79 46.22) rotate(-90)">.com</text></g></g></svg>