<svg xmlns="http://www.w3.org/2000/svg" viewBox="0 0 420.44 475.72"><g id="Camada_2" data-name="Camada 2"><g id="Capa_1" data-name="Capa 1"><path d="M393.64,351.72a7.5,7.5,0,0,0,7.5-7.5v-180c0-9-3.49-18.11-9.83-25.79L335.69,71a43.89,43.89,0,0,0-9.9-8.88c.1-1.06,3.36-26,29.78-41.44,26.6-15.6,54.27-1.25,54.27-1.25s5.92,3.3,9.6-2.1C422.61,12.7,417.2,9,417.2,9s-31.1-19.5-68.74-1.13c-32.61,15.92-37.34,48.24-37.34,48.41a37,37,0,0,0-6.48-.57h-97a38.52,38.52,0,0,0-19.52,5.43c-.26.1-.51.2-.77.32L114.24,97.09A39.19,39.19,0,0,0,96,116.27c0,.1-.08.19-.11.28L65.66,193.22A7.5,7.5,0,0,0,69.89,203a7.37,7.37,0,0,0,2.75.52,7.51,7.51,0,0,0,7-4.75l30.16-76.52a24.15,24.15,0,0,1,11.11-11.67l38.63-18.81L121,138.43a39.92,39.92,0,0,0-8.82,25.79v259a53.62,53.62,0,0,0,.74,8.84L35.6,397.82A34.76,34.76,0,0,1,18,352l.09-.23L67,230.31A7.5,7.5,0,0,0,53,224.71L4.19,346.08a49.79,49.79,0,0,0,25.33,65.45l90.63,40.16.33.13a51.27,51.27,0,0,0,43.16,23.9h185c28.46,0,52.5-24.05,52.5-52.5v-44a7.5,7.5,0,0,0-15,0v44c0,20.32-17.18,37.5-37.5,37.5h-185c-20.13,0-36.5-16.83-36.5-37.5v-259c0-6.44,1.81-11.91,5.39-16.24l55.62-67.39c5.18-6.28,12.28-9.87,19.49-9.87h97a22.09,22.09,0,0,1,4.21.41,56.5,56.5,0,0,1-32,36.06,23.51,23.51,0,1,0,3.13,14.9,71.47,71.47,0,0,0,42.28-43.58,25.11,25.11,0,0,1,1.89,2.08L379.74,148c4.13,5,6.4,10.76,6.4,16.24v180a7.5,7.5,0,0,0,7.5,7.5Zm-137-224a8.5,8.5,0,1,1,8.5-8.5A8.51,8.51,0,0,1,256.64,127.72Z"/><path d="M191.64,362.72a7.48,7.48,0,0,0,5.3-2.2l128-128a7.5,7.5,0,0,0-10.61-10.61l-128,128c-4.78,4.46-1.11,13,5.31,12.81Z"/><path d="M207.64,283.72a32.5,32.5,0,0,0,0-65h-1a32.5,32.5,0,1,0,0,65Zm-18.5-32.5a17.52,17.52,0,0,1,17.5-17.5h1a17.5,17.5,0,0,1,0,35h-1A17.53,17.53,0,0,1,189.14,251.22Z"/><path d="M304.64,362.72h1a32.5,32.5,0,0,0,0-65h-1a32.5,32.5,0,0,0,0,65Zm0-50h1a17.5,17.5,0,0,1,0,35h-1a17.5,17.5,0,0,1,0-35Z"/></g></g></svg>