<?xml version="1.0" encoding="utf-8"?>
<!-- Generator: Adobe Illustrator 24.3.0, SVG Export Plug-In . SVG Version: 6.00 Build 0)  -->
<svg version="1.1"
	 id="svg3013" inkscape:version="0.48.3.1 r9886" sodipodi:docname="sort_up_font_awesome.svg" xmlns:cc="http://creativecommons.org/ns#" xmlns:dc="http://purl.org/dc/elements/1.1/" xmlns:inkscape="http://www.inkscape.org/namespaces/inkscape" xmlns:rdf="http://www.w3.org/1999/02/22-rdf-syntax-ns#" xmlns:sodipodi="http://sodipodi.sourceforge.net/DTD/sodipodi-0.dtd" xmlns:svg="http://www.w3.org/2000/svg"
	 xmlns="http://www.w3.org/2000/svg" xmlns:xlink="http://www.w3.org/1999/xlink" x="0px" y="0px" viewBox="0 0 1920 1080"
	 style="enable-background:new 0 0 1920 1080;" xml:space="preserve">
<style type="text/css">
	.st0{fill:#F10E34;}
</style>
<sodipodi:namedview  bordercolor="#666666" borderopacity="1" gridtolerance="10" guidetolerance="10" id="namedview3019" inkscape:current-layer="svg3013" inkscape:cx="896" inkscape:cy="896" inkscape:pageopacity="0" inkscape:pageshadow="2" inkscape:window-height="480" inkscape:window-maximized="0" inkscape:window-width="640" inkscape:window-x="0" inkscape:window-y="25" inkscape:zoom="0.13169643" objecttolerance="10" pagecolor="#ffffff" showgrid="false">
	</sodipodi:namedview>
<g id="g3015" transform="matrix(1,0,0,-1,349.28814,1634.7119)">
	<path id="path3017" inkscape:connector-curvature="0" class="st0" d="M898.4,996.6c0-10.4-3.8-19.5-11.5-27.1
		c-7.6-7.6-16.7-11.5-27.1-11.5h-540c-10.4,0-19.5,3.8-27.1,11.5c-7.6,7.6-11.5,16.7-11.5,27.1s3.8,19.5,11.5,27.1l270,270
		c7.6,7.6,16.7,11.5,27.1,11.5c10.4,0,19.5-3.8,27.1-11.5l270-270C894.5,1016.1,898.4,1007.1,898.4,996.6z"/>
</g>
</svg>
