<svg xmlns="http://www.w3.org/2000/svg" viewBox="0 0 192.36 217.36"><defs><style>.cls-1{fill:#fff;}.cls-2{fill:none;stroke:#fff;stroke-linecap:round;stroke-linejoin:round;stroke-width:8px;}</style></defs><g id="Camada_2" data-name="Camada 2"><g id="Camada_1-2" data-name="Camada 1"><g id="Camada_2-2" data-name="Camada 2"><g id="Camada_1-2-2" data-name="Camada 1-2"><path class="cls-1" d="M186.36,126.77l-25.93-6.58V53c0-4.25-2.37-10.83-2.37-10.83L149,10s-.21-3.93-5.42-7.17A18.42,18.42,0,0,0,133,0H25a19.33,19.33,0,0,0-9.26,2.35C11.1,5,10.17,8.21,10.17,8.21L3.3,40.11S.62,50.28.62,53,0,172.74,0,172.74a16.05,16.05,0,0,0,5.22,11c5.33,5.07,11,4.37,11,4.37h98.9c3.16,7.22,8.64,13.15,11.51,15.95,8.54,8.33,18.22,13.3,25.9,13.3,10.84,0,21.67-9.53,25.83-13.62s14-15,14-26.21v-43A8,8,0,0,0,186.36,126.77ZM134,8.43c4.61,0,7.61-.35,8.79,4.28l6.73,26.21c.87,3.85-4.82,5.57-9.43,5.57L101,44.44,97.53,8.32ZM92.7,44.81V77a8.32,8.32,0,0,0-9.61,1.44,11.34,11.34,0,0,1-1.93,1.28A18.73,18.73,0,0,1,78,77.85a8.12,8.12,0,0,0-9-.91V44.86l0-.46L72.3,8.81H89.22l3.44,35.62ZM12.52,36.57l5-24.45c1.37-5.28,6.35-4,11-4L64,8.22,60.71,44.39l-39.84,0C16.26,44.34,10.7,41.53,12.52,36.57Zm100.18,98v43a20.6,20.6,0,0,0,.18,2.72H16.49a8.35,8.35,0,0,1-8.35-8.35V61.3A8.35,8.35,0,0,1,16.49,53H60.7V84.38s1.82,4.1,4.37,4.1c3.59,0,7.76-4.1,7.76-4.1a23.87,23.87,0,0,0,8.41,4.1,17.69,17.69,0,0,0,7.63-4.1s5.45,4.1,8.52,4.1a3.26,3.26,0,0,0,2.94-2,6.9,6.9,0,0,0,.64-2V53h43.21a8.35,8.35,0,0,1,8.35,8.35v57.14a7.94,7.94,0,0,0-2,.25l-31.83,8.08A8,8,0,0,0,112.7,134.53Zm71.66,43c0,12.26-20.35,31.83-31.83,31.83-5.87,0-13.83-4.7-20.32-11a49.19,49.19,0,0,1-8.13-10.23,25.27,25.27,0,0,1-3.11-7.86,14.33,14.33,0,0,1-.27-2.72v-43l31.83-8.09,7.9,2,23.93,6.08Z"/><rect class="cls-1" x="18.13" y="160.09" width="39.91" height="7.83" rx="3.91"/><rect class="cls-1" x="18.13" y="140.33" width="39.91" height="7.83" rx="3.91"/><polyline class="cls-2" points="138.35 167.91 148.35 177.96 168.38 157.88"/></g></g></g></g></svg>