<?xml version="1.0" encoding="utf-8"?>
<!-- Generator: Adobe Illustrator 24.3.0, SVG Export Plug-In . SVG Version: 6.00 Build 0)  -->
<svg version="1.1" id="Camada_1" xmlns="http://www.w3.org/2000/svg" xmlns:xlink="http://www.w3.org/1999/xlink" x="0px" y="0px"
	 viewBox="0 0 192.4 217.4" style="enable-background:new 0 0 192.4 217.4;" xml:space="preserve">
<style type="text/css">
	.st0{fill:#4F4F4F;}
	.st1{fill:#FFFFFF;}
	.st2{fill:#999999;}
	.st3{fill:none;stroke:#FFFFFF;stroke-width:8;stroke-linecap:round;stroke-linejoin:round;}
</style>
<g id="Camada_2_1_">
	<g id="Camada_1-2">
		<path class="st0" d="M160.4,172.7V52.9c0-4.3-2.4-10.8-2.4-10.8L149,9.9c0,0-0.2-3.9-5.4-7.2c-3.2-2-6.9-2.9-10.6-2.8H25
			c-3.2,0-6.4,0.8-9.3,2.3c-4.6,2.7-5.6,5.8-5.6,5.8L3.3,40.1c0,0-2.7,10.2-2.7,12.8S0,172.7,0,172.7c0.2,4.2,2.1,8.2,5.2,11
			c5.3,5.1,11,4.4,11,4.4h129.4c0,0,6.4-0.5,10.4-4.7S160.4,172.7,160.4,172.7z"/>
		<path class="st1" d="M140.1,44.5L20.9,44.3c-4.6,0-10.2-2.8-8.4-7.8l5-24.5c1.4-5.3,6.4-4,11-4L134,8.4c4.6,0,7.6-0.4,8.8,4.3
			l6.7,26.2C150.4,42.8,144.7,44.5,140.1,44.5z"/>
		<path class="st1" d="M16.5,52.9h127.7c4.6,0,8.4,3.7,8.4,8.3v110.6c0,4.6-3.7,8.4-8.4,8.4H16.5c-4.6,0-8.4-3.7-8.4-8.4V61.3
			C8.1,56.7,11.9,52.9,16.5,52.9z"/>
		<path class="st0" d="M22,160.1h32.1c2.2,0,3.9,1.8,3.9,3.9v0c0,2.2-1.8,3.9-3.9,3.9H22c-2.2,0-3.9-1.8-3.9-3.9v0
			C18.1,161.8,19.9,160.1,22,160.1z"/>
		<path class="st0" d="M22,140.3h32.1c2.2,0,3.9,1.8,3.9,3.9v0c0,2.2-1.8,3.9-3.9,3.9H22c-2.2,0-3.9-1.8-3.9-3.9v0
			C18.1,142.1,19.9,140.3,22,140.3z"/>
		<path class="st1" d="M65.5,84.2c-0.2-0.3-0.5-0.6-0.7-0.9V44.7l3.6-40H93l3.9,40v39.4v0.1c-2-0.8-3.8-1.9-5.5-3.2
			c-1.6-1.2-3.9-1.1-5.4,0.3c-1.4,1.2-3,2.2-4.8,2.8c-2.1-0.7-4-1.7-5.8-3.1c-1.6-1.3-4-1.2-5.5,0.3C68.7,82.6,67.2,83.6,65.5,84.2z
			"/>
		<path class="st0" d="M89.2,8.8l3.5,36V77c-3.2-1.6-7-1.1-9.6,1.4c-0.6,0.5-1.2,0.9-1.9,1.3C80,79.2,79,78.6,78,77.8
			c-2.5-2.1-6.1-2.5-9-0.9V44.8l3.3-36H89.2 M96.8,0.5H64.7l-4,44v39.9c0,0,1.8,4.1,4.4,4.1c3.6,0,7.8-4.1,7.8-4.1
			c2.5,1.9,5.4,3.3,8.4,4.1c2.8-0.7,5.5-2.1,7.6-4.1c0,0,5.4,4.1,8.5,4.1l0,0c3.1,0,3.6-4,3.6-4v-40L96.8,0.5z"/>
		<path class="st2" d="M152.5,213.4c-13.6,0-35.8-20-35.8-35.8v-43c0-1.8,1.2-3.4,3-3.9l31.8-8.1c0.3-0.1,0.7-0.1,1-0.1
			c0.3,0,0.7,0,1,0.1l31.8,8.1c1.8,0.5,3,2.1,3,3.9v43C188.4,191.6,166.6,213.4,152.5,213.4z"/>
		<path class="st0" d="M152.5,126.4l31.8,8.1v43c0,12.3-20.4,31.8-31.8,31.8l0,0c-11.7,0-31.8-18.8-31.8-31.8v-43L152.5,126.4
			 M152.5,118.4c-0.7,0-1.3,0.1-2,0.3l-31.8,8.1c-3.5,0.9-6,4.1-6,7.8v43c0,11.7,9.7,22.4,13.9,26.5c8.5,8.3,18.2,13.3,25.9,13.3
			c10.8,0,21.7-9.5,25.8-13.6s14-15,14-26.2v-43c0-3.7-2.5-6.8-6-7.8l-31.8-8.1C153.9,118.5,153.2,118.4,152.5,118.4z"/>
		<polyline class="st3" points="138.4,167.9 148.4,177.9 168.4,157.9 		"/>
	</g>
</g>
</svg>
